<svg width="32" height="32" viewBox="0 0 32 32" fill="none" xmlns="http://www.w3.org/2000/svg">
 <g clip-path="url(#clip0_15798_2691)">
<path d="M13.0327 31L18.7162 31C19.4863 31 19.8713 31 20.1654 30.8503C20.4242 30.7185 20.6345 30.5084 20.7664 30.2499C20.9162 29.956 20.9162 29.5713 20.9162 28.8019V28.8018V23.1233C20.9162 22.3539 20.9162 21.9691 21.0661 21.6753C21.1979 21.4168 21.4083 21.2066 21.667 21.0749C21.9611 20.9251 22.3462 20.9251 23.1163 20.9251H28.7998C29.5699 20.9251 29.9549 20.9251 30.249 20.7754C30.5078 20.6437 30.7181 20.4335 30.8499 20.175C30.9998 19.8811 30.9998 19.4964 30.9998 18.727L30.9998 13.0484C30.9998 12.279 30.9998 11.8943 30.8499 11.6004C30.7181 11.3419 30.5078 11.1317 30.249 11C20.1654 11 11.047 23.1233 11.047 30.218C11.2753 30.5903 11.3247 30.7185 11.5834 30.8503C11.8775 31 12.2626 31 13.0327 31Z" stroke="#5865F2" stroke-width="2" stroke-linecap="round" stroke-linejoin="round"/>
<path d="M18.9671 1L13.2837 1C12.5136 1 12.1285 1 11.8344 1.14974C11.5756 1.28146 11.3653 1.49163 11.2335 1.75013C11.0836 2.04401 11.0836 2.42872 11.0836 3.19813V3.19815L11.0836 8.87672C11.0836 9.64614 11.0836 10.0309 10.9337 10.3247C10.8019 10.5832 10.5915 10.7934 10.3328 10.9251C10.0387 11.0749 9.65363 11.0749 8.88354 11.0749L3.20006 11.0749C2.42996 11.0749 2.04492 11.0749 1.75078 11.2246C1.49205 11.3563 1.2817 11.5665 1.14987 11.825C1 12.1189 1 12.5036 1 13.273L1 18.9516C1 19.721 1 20.1057 1.14987 20.3996C1.2817 20.6581 1.49205 20.8683 1.75078 21C11.8344 21 20.9528 8.87672 20.9528 1.78199C20.7246 1.40966 20.6751 1.28146 20.4164 1.14974C20.1223 1 19.7372 1 18.9671 1Z" stroke="#5865F2" stroke-width="2" stroke-linecap="round" stroke-linejoin="round"/>
</g>
<defs>
<clipPath id="clip0_15798_2691">
<rect width="32" height="32" fill="white"/>
</clipPath>
</defs>
</svg>